<svg width="32" height="32" viewBox="0 0 32 32" fill="none" xmlns="http://www.w3.org/2000/svg">
<path d="M10.4396 7.83436C10.7093 6.72225 12.291 6.72225 12.5606 7.83436L13.3026 10.8944C13.3989 11.2915 13.7089 11.6015 14.106 11.6978L17.166 12.4398C18.2781 12.7094 18.2781 14.2911 17.166 14.5608L14.106 15.3028C13.7089 15.3991 13.3989 15.7091 13.3026 16.1062L12.5606 19.1662C12.291 20.2783 10.7093 20.2783 10.4396 19.1662L9.69759 16.1062C9.60131 15.7091 9.2913 15.3991 8.89424 15.3028L5.8342 14.5608C4.72209 14.2911 4.72209 12.7094 5.8342 12.4398L8.89424 11.6978C9.2913 11.6015 9.60131 11.2915 9.69759 10.8944L10.4396 7.83436Z" fill="url(#paint0_linear_2_24)"/>
<path d="M19.3475 18.5136C19.5134 17.8292 20.4868 17.8292 20.6527 18.5136L21.1094 20.3967C21.1686 20.641 21.3594 20.8318 21.6037 20.891L23.4868 21.3477C24.1712 21.5136 24.1712 22.4869 23.4868 22.6529L21.6037 23.1095C21.3594 23.1688 21.1686 23.3596 21.1094 23.6039L20.6527 25.487C20.4868 26.1714 19.5134 26.1714 19.3475 25.487L18.8909 23.6039C18.8316 23.3596 18.6408 23.1688 18.3965 23.1095L16.5134 22.6529C15.829 22.4869 15.829 21.5136 16.5134 21.3477L18.3965 20.891C18.6408 20.8318 18.8316 20.641 18.8909 20.3967L19.3475 18.5136Z" fill="url(#paint1_linear_2_24)"/>
<path d="M22.5718 7.71212C22.6807 7.263 23.3195 7.263 23.4284 7.71212L23.7281 8.94791C23.7669 9.10826 23.8921 9.23345 24.0525 9.27234L25.2883 9.572C25.7374 9.6809 25.7374 10.3197 25.2883 10.4286L24.0525 10.7282C23.8921 10.7671 23.7669 10.8923 23.7281 11.0526L23.4284 12.2884C23.3195 12.7376 22.6807 12.7376 22.5718 12.2884L22.2722 11.0526C22.2333 10.8923 22.1081 10.7671 21.9477 10.7282L20.712 10.4286C20.2628 10.3197 20.2628 9.6809 20.712 9.572L21.9477 9.27234C22.1081 9.23345 22.2333 9.10826 22.2722 8.94791L22.5718 7.71212Z" fill="url(#paint2_linear_2_24)"/>
<path fill-rule="evenodd" clip-rule="evenodd" d="M23.0001 7.93137L22.7555 8.93999C22.6578 9.34316 22.343 9.65794 21.9398 9.7557L20.9312 10.0003L21.9398 10.2449C22.343 10.3426 22.6578 10.6574 22.7555 11.0606L23.0001 12.0692L23.2447 11.0606C23.3425 10.6574 23.6572 10.3426 24.0604 10.2449L25.069 10.0003L24.0604 9.7557C23.6572 9.65794 23.3425 9.34316 23.2447 8.93999L23.0001 7.93137ZM23.4896 7.38524C23.3651 6.87196 22.6351 6.87196 22.5106 7.38524L22.1682 8.79757C22.1237 8.98083 21.9807 9.12391 21.7974 9.16834L20.3851 9.51081C19.8718 9.63528 19.8718 10.3653 20.3851 10.4897L21.7974 10.8322C21.9807 10.8767 22.1237 11.0197 22.1682 11.203L22.5106 12.6153C22.6351 13.1286 23.3651 13.1286 23.4896 12.6153L23.832 11.203C23.8765 11.0197 24.0196 10.8766 24.2028 10.8322L25.6152 10.4897C26.1284 10.3653 26.1284 9.63528 25.6152 9.51081L24.2028 9.16834C24.0196 9.12391 23.8765 8.98083 23.832 8.79757L23.4896 7.38524Z" fill="url(#paint3_linear_2_24)"/>
<path d="M6.00011 23.0003C5.44783 23.0003 5.00011 22.5526 5.00011 22.0003C5.00011 21.448 5.44783 21.0003 6.00011 21.0003C6.5524 21.0003 7.00011 21.448 7.00011 22.0003C7.00011 22.5526 6.5524 23.0003 6.00011 23.0003Z" fill="url(#paint4_linear_2_24)"/>
<path d="M26.0001 18.0003C25.4478 18.0003 25.0001 17.5526 25.0001 17.0003C25.0001 16.448 25.4478 16.0003 26.0001 16.0003C26.5524 16.0003 27.0001 16.448 27.0001 17.0003C27.0001 17.5526 26.5524 18.0003 26.0001 18.0003Z" fill="url(#paint5_linear_2_24)"/>
<defs>
<linearGradient id="paint0_linear_2_24" x1="16.0001" y1="7.00028" x2="16.0001" y2="26.0003" gradientUnits="userSpaceOnUse">
<stop stop-color="#3F20FB"/>
<stop offset="1" stop-color="#B377FF"/>
</linearGradient>
<linearGradient id="paint1_linear_2_24" x1="16.0001" y1="7.00028" x2="16.0001" y2="26.0003" gradientUnits="userSpaceOnUse">
<stop stop-color="#3F20FB"/>
<stop offset="1" stop-color="#B377FF"/>
</linearGradient>
<linearGradient id="paint2_linear_2_24" x1="16.0001" y1="7.00028" x2="16.0001" y2="26.0003" gradientUnits="userSpaceOnUse">
<stop stop-color="#3F20FB"/>
<stop offset="1" stop-color="#B377FF"/>
</linearGradient>
<linearGradient id="paint3_linear_2_24" x1="16.0001" y1="7.00028" x2="16.0001" y2="26.0003" gradientUnits="userSpaceOnUse">
<stop stop-color="#3F20FB"/>
<stop offset="1" stop-color="#B377FF"/>
</linearGradient>
<linearGradient id="paint4_linear_2_24" x1="16.0001" y1="7.00028" x2="16.0001" y2="26.0003" gradientUnits="userSpaceOnUse">
<stop stop-color="#3F20FB"/>
<stop offset="1" stop-color="#B377FF"/>
</linearGradient>
<linearGradient id="paint5_linear_2_24" x1="16.0001" y1="7.00028" x2="16.0001" y2="26.0003" gradientUnits="userSpaceOnUse">
<stop stop-color="#3F20FB"/>
<stop offset="1" stop-color="#B377FF"/>
</linearGradient>
</defs>
</svg>
